<?xml version="1.0" standalone="no"?>
<!DOCTYPE svg PUBLIC "-//W3C//DTD SVG 20010904//EN"
 "http://www.w3.org/TR/2001/REC-SVG-20010904/DTD/svg10.dtd">
<svg version="1.0" xmlns="http://www.w3.org/2000/svg"
 width="100px" height="100px" viewBox="0 0 300.000000 294.000000"
 preserveAspectRatio="xMidYMid meet">
<metadata>
Created by potrace 1.10, written by Peter Selinger 2001-2011
</metadata>
<g transform="translate(0.000000,294.000000) scale(0.100000,-0.100000)"
fill="#000" stroke="none">
<path d="M1486 2868 c-9 -40 -23 -107 -31 -148 -8 -41 -17 -86 -20 -100 -11
-49 -35 -185 -35 -202 0 -15 8 -18 43 -17 40 1 41 1 15 11 -33 11 -34 21 -13
133 39 220 64 315 75 294 4 -8 15 -54 25 -104 9 -49 21 -94 25 -100 4 -5 10
-41 13 -80 4 -38 9 -82 12 -97 3 -15 1 -30 -5 -33 -19 -11 -10 -25 15 -25 29
0 29 -13 0 142 l-13 68 32 -5 c17 -2 56 -6 86 -9 78 -8 178 -26 228 -42 23 -7
42 -11 42 -8 0 3 -25 30 -55 61 -32 33 -55 50 -55 41 0 -9 7 -21 15 -28 22
-18 20 -43 -2 -32 -23 12 -139 32 -223 39 -36 3 -66 6 -67 7 -2 1 -17 71 -35
154 -20 99 -36 152 -44 152 -8 0 -19 -29 -28 -72z"/>
<path d="M1295 2359 c-141 -35 -311 -134 -425 -249 -51 -52 -131 -168 -168
-244 -44 -91 -71 -186 -83 -292 -8 -68 -17 -104 -25 -104 -13 0 -24 -22 -24
-51 0 -15 -7 -19 -39 -19 -22 0 -61 4 -88 10 -26 5 -91 16 -143 25 -52 9 -108
19 -124 22 l-30 5 25 13 c13 7 47 15 74 19 28 3 108 17 179 31 71 14 134 24
141 21 7 -2 10 -18 8 -38 -3 -24 -1 -29 6 -18 5 9 15 53 21 99 25 183 110 372
224 499 l35 39 -45 41 -45 40 46 38 c40 34 58 64 37 64 -19 0 -177 -168 -212
-225 -13 -22 -25 -42 -26 -43 -4 -6 -36 14 -35 21 3 23 -1 27 -24 21 -19 -5
-25 -2 -25 10 0 8 -11 23 -25 32 -23 15 -27 15 -50 0 -27 -18 -33 -54 -13 -74
15 -15 65 -16 74 0 5 7 10 3 16 -12 6 -16 12 -20 19 -13 9 9 49 7 49 -2 0 -2
-13 -28 -29 -58 -18 -34 -26 -60 -20 -68 10 -16 10 -16 38 46 27 57 96 164
139 215 l30 35 36 -34 c35 -34 47 -61 27 -61 -11 0 -84 -100 -130 -178 -34
-58 -83 -195 -101 -284 -6 -32 -14 -59 -18 -59 -4 -1 -20 -3 -37 -5 -16 -1
-48 -8 -70 -13 -38 -10 -74 -17 -140 -27 -16 -2 -37 -7 -45 -10 -8 -3 -31 -8
-50 -10 -19 -2 -48 -7 -65 -11 -40 -9 -34 -8 -87 -17 -50 -8 -68 -35 -25 -38
12 0 27 -2 32 -3 6 -1 26 -5 45 -8 19 -4 51 -9 70 -11 19 -2 54 -8 77 -15 23
-6 45 -11 50 -10 4 1 10 0 13 -1 3 -1 16 -3 30 -5 14 -2 67 -9 118 -16 l92
-13 0 -44 c0 -50 48 -199 92 -287 36 -71 109 -176 151 -216 33 -31 31 -36 -21
-88 -22 -21 -26 -22 -36 -9 -6 8 -29 36 -51 62 -40 47 -145 219 -145 237 0 5
-4 9 -9 9 -23 0 -20 -24 9 -71 l31 -51 -35 6 c-29 6 -36 4 -36 -9 0 -17 -16
-20 -25 -5 -17 27 -75 -6 -75 -43 0 -23 31 -57 51 -57 20 0 49 31 49 53 0 20
11 22 28 5 10 -10 14 -8 18 10 9 34 29 27 60 -22 67 -101 203 -234 225 -220 8
4 -2 19 -27 39 l-39 33 25 27 c44 47 51 47 107 -4 29 -26 69 -56 90 -67 21
-10 49 -27 62 -36 13 -10 32 -18 42 -18 9 0 19 -5 21 -10 5 -16 169 -60 230
-62 25 -1 28 -5 33 -47 3 -25 12 -74 20 -108 8 -34 15 -64 15 -67 0 -3 -14 0
-31 6 -22 8 -34 7 -42 -1 -6 -6 -7 -11 -2 -12 21 -2 70 -10 72 -13 1 -1 5 -13
7 -27 2 -13 5 -24 6 -24 1 0 3 -16 6 -35 2 -19 8 -46 13 -60 5 -14 12 -43 16
-65 9 -61 15 -75 30 -75 12 0 30 59 41 135 2 16 9 54 16 83 13 62 22 68 121
76 l66 5 -5 -32 -6 -32 24 26 c25 25 48 61 48 74 0 4 -12 4 -27 0 -31 -8 -51
-11 -133 -21 -30 -3 -57 -6 -60 -7 -12 -4 -9 38 6 103 28 119 20 110 119 127
56 9 229 75 245 93 3 3 22 14 43 25 35 18 53 32 118 92 l26 24 39 -35 39 -36
-38 -31 c-40 -33 -47 -49 -19 -49 29 0 215 208 236 265 7 19 9 19 30 -7 21
-26 23 -27 39 -11 16 16 17 16 17 -10 0 -37 40 -64 69 -45 62 38 16 123 -48
88 -17 -9 -22 -8 -28 5 -4 12 -13 15 -29 11 -29 -8 -30 3 -4 46 23 38 26 58 8
58 -7 -1 -24 -24 -37 -53 -31 -67 -87 -150 -142 -210 l-44 -48 -36 40 c-35 39
-35 41 -17 57 10 10 18 21 18 27 0 5 -30 -19 -67 -53 -97 -91 -146 -120 -318
-190 -30 -13 -184 -47 -235 -54 -41 -4 -82 6 -70 17 3 3 39 8 80 11 89 7 146
16 165 28 6 3 26 9 45 13 127 27 398 230 459 344 7 13 19 20 26 17 9 -3 12 0
9 8 -3 7 13 49 36 94 22 44 40 86 40 92 0 6 9 40 21 75 18 58 20 83 17 242 -4
183 -12 226 -59 331 -10 23 -19 47 -19 53 0 21 -132 204 -178 248 -201 190
-402 272 -662 270 -88 0 -148 -6 -205 -20z m375 -12 c151 -41 203 -61 284
-110 93 -57 200 -144 235 -192 68 -95 130 -197 149 -245 52 -135 62 -192 63
-341 1 -128 -2 -154 -25 -229 -31 -101 -82 -211 -122 -262 -16 -20 -40 -53
-54 -73 -41 -58 -174 -162 -292 -228 -70 -39 -282 -99 -336 -95 -37 2 -72 -11
-72 -26 0 -13 15 -17 68 -17 23 0 32 -5 32 -16 0 -21 -28 -186 -41 -238 -5
-22 -17 -76 -26 -120 l-17 -79 -17 54 c-22 71 -60 281 -62 345 -2 46 0 50 21
49 50 -2 3 15 -58 20 -36 3 -81 11 -100 16 -19 6 -44 13 -55 15 -24 5 -36 10
-140 59 -273 129 -453 374 -505 686 -5 36 -13 80 -16 98 -3 23 -1 32 9 32 10
0 17 -28 25 -103 12 -97 36 -185 78 -272 28 -60 134 -213 174 -253 95 -94 287
-208 380 -226 3 -1 10 -4 15 -7 14 -9 61 -18 121 -23 29 -3 65 -8 80 -12 16
-4 25 -3 21 2 -4 4 -13 9 -20 10 -207 39 -252 51 -322 89 -303 163 -469 390
-509 700 -37 277 68 568 273 757 128 118 243 181 415 229 118 33 237 35 346 6z
m-1162 -264 c2 -8 -5 -13 -17 -13 -21 0 -35 13 -24 24 10 10 36 3 41 -11z
m-10 -1220 c-5 -25 -28 -28 -28 -4 0 12 6 21 16 21 9 0 14 -7 12 -17z m2067
-3 c0 -8 -8 -16 -17 -18 -13 -2 -18 3 -18 18 0 15 5 20 18 18 9 -2 17 -10 17
-18z"/>
<path d="M1370 2243 c-150 -23 -353 -135 -443 -244 -102 -125 -180 -307 -192
-447 l-7 -79 -29 10 c-24 9 -32 8 -46 -6 -33 -33 9 -64 58 -43 14 6 17 -4 23
-63 6 -73 49 -225 70 -251 7 -8 26 -42 42 -75 19 -40 57 -88 115 -146 74 -74
100 -93 192 -137 130 -64 217 -84 367 -84 190 -1 333 46 491 163 150 111 271
333 292 538 6 60 12 70 29 53 14 -14 28 -16 28 -3 0 5 -9 11 -20 14 -14 3 -18
10 -14 21 9 24 38 15 45 -14 5 -22 7 -23 14 -7 11 26 -13 50 -47 45 -26 -4
-28 -2 -33 41 -17 130 -51 234 -119 356 -31 55 -105 142 -162 189 -75 62 -224
140 -309 161 -55 14 -275 19 -345 8z m343 -29 c15 -4 27 -10 27 -14 0 -4 8 -7
18 -7 24 0 62 -14 62 -22 0 -4 17 -13 38 -20 20 -7 51 -24 69 -37 17 -13 36
-24 42 -24 5 0 14 -6 18 -13 4 -8 20 -22 36 -32 64 -41 209 -269 223 -350 2
-17 9 -41 14 -55 44 -125 21 -375 -48 -502 -15 -28 -34 -63 -42 -78 -63 -117
-170 -213 -317 -286 -114 -56 -187 -72 -333 -72 -126 0 -238 21 -305 57 -22
11 -45 21 -51 21 -24 0 -137 82 -199 146 -56 58 -62 66 -111 155 -79 142 -109
269 -100 415 6 102 14 151 28 177 5 10 12 31 14 45 3 15 11 38 19 52 7 14 27
52 44 86 17 33 50 82 75 108 24 26 44 50 44 53 1 13 157 123 190 134 20 6 42
15 47 19 17 13 116 42 169 51 54 8 282 4 329 -7z m-1009 -749 c8 -21 -21 -40
-38 -25 -8 6 -13 17 -10 24 6 17 41 18 48 1z"/>
<path d="M1496 2099 c-8 -19 -27 -68 -42 -109 -15 -41 -31 -79 -35 -85 -5 -5
-9 -15 -9 -22 0 -7 -9 -32 -19 -56 -11 -23 -51 -121 -89 -217 -39 -96 -85
-209 -104 -250 -19 -41 -40 -94 -48 -117 -7 -24 -17 -43 -22 -43 -4 0 -8 -6
-8 -13 0 -30 -96 -95 -123 -84 -16 6 -27 -12 -27 -43 0 -18 10 -19 183 -17
l182 2 3 28 c3 20 -1 27 -15 29 -101 8 -117 51 -63 175 36 80 33 78 91 80 278
11 269 11 269 -6 0 -9 6 -25 14 -36 7 -11 17 -35 21 -52 3 -18 10 -33 14 -33
4 0 13 -17 19 -39 7 -21 23 -63 36 -92 l23 -53 157 -3 157 -2 -3 32 c-2 19 -8
31 -16 29 -23 -4 -92 48 -119 91 -15 23 -33 60 -40 81 -8 22 -25 63 -38 90
-13 28 -56 128 -95 221 -40 94 -83 194 -96 223 -13 29 -24 57 -24 61 0 5 -7
22 -15 38 -8 15 -21 44 -29 63 -71 177 -69 175 -90 129z m50 -86 c37 -104 275
-663 335 -789 27 -56 85 -123 120 -137 12 -5 12 -7 0 -16 -18 -11 -220 -3
-237 10 -6 5 -33 62 -59 127 -27 64 -59 132 -73 151 l-25 33 -147 -6 c-81 -3
-155 -8 -164 -12 -21 -8 -52 -67 -61 -117 -4 -21 -11 -40 -16 -43 -5 -3 -9
-22 -9 -43 0 -27 7 -44 25 -61 14 -13 25 -26 25 -30 0 -12 -77 -26 -105 -18
-16 4 -48 8 -71 9 -30 2 -41 6 -37 16 3 7 11 13 18 13 25 0 90 89 119 162 16
40 42 101 57 136 16 35 29 65 29 67 0 3 18 46 39 97 60 142 142 347 162 405
22 64 37 93 49 93 4 0 16 -21 26 -47z"/>
<path d="M1413 1715 c-27 -53 -93 -223 -93 -241 0 -8 8 -23 17 -34 15 -17 30
-20 109 -20 96 0 128 6 118 21 -3 5 -54 9 -115 9 -123 0 -122 0 -90 73 47 108
83 207 79 219 -3 7 -14 -5 -25 -27z"/>
<path d="M1460 1745 c0 -16 67 -182 101 -248 30 -60 31 -61 24 -22 -4 22 -10
45 -14 50 -4 6 -22 49 -40 96 -30 78 -70 148 -71 124z"/>
<path d="M1481 1497 c-14 -6 -27 -19 -29 -27 -5 -13 -3 -13 12 -1 10 8 32 16
49 17 44 3 44 3 27 14 -20 13 -30 12 -59 -3z"/>
<path d="M1090 1876 c0 -12 40 -54 145 -150 21 -20 42 -36 45 -36 23 0 10 19
-48 73 -37 34 -80 77 -97 95 -34 35 -45 39 -45 18z"/>
<path d="M1894 1856 c-11 -11 -50 -49 -87 -84 -61 -57 -79 -82 -59 -82 4 0 25
17 48 38 22 20 63 58 92 84 51 45 65 69 40 67 -7 -1 -22 -11 -34 -23z"/>
<path d="M830 1455 c0 -13 26 -15 181 -15 140 0 180 3 177 13 -4 9 -51 13
-181 15 -153 2 -177 0 -177 -13z"/>
<path d="M1840 1455 c0 -13 27 -15 180 -15 153 0 180 2 180 15 0 13 -27 15
-180 15 -153 0 -180 -2 -180 -15z"/>
<path d="M1266 1245 c-20 -31 -21 -51 -1 -31 9 9 23 20 32 24 9 5 13 14 9 21
-11 17 -22 13 -40 -14z"/>
<path d="M1500 970 c0 -171 2 -200 15 -200 13 0 15 29 15 200 0 171 -2 200
-15 200 -13 0 -15 -29 -15 -200z"/>
<path d="M1166 1021 c-3 -5 0 -14 8 -20 10 -8 16 -8 25 2 6 8 8 17 4 20 -9 10
-31 9 -37 -2z"/>
<path d="M1822 1013 c5 -25 28 -28 28 -4 0 12 -6 21 -16 21 -9 0 -14 -7 -12
-17z"/>
<path d="M1660 936 c0 -14 24 -29 33 -19 3 3 3 11 0 19 -7 18 -33 18 -33 0z"/>
<path d="M1580 911 c0 -12 6 -21 16 -21 9 0 14 7 12 17 -5 25 -28 28 -28 4z"/>
<path d="M1495 636 c-20 -15 -20 -15 1 -37 l22 -21 12 22 c10 18 9 25 -2 36
-12 12 -17 12 -33 0z"/>
<path d="M2160 2292 c0 -5 20 -22 45 -40 25 -17 45 -36 45 -41 0 -5 -18 -25
-40 -45 -38 -34 -50 -56 -31 -56 5 0 24 18 42 40 18 22 38 40 44 40 15 0 124
-144 145 -193 6 -12 14 -29 20 -37 5 -8 15 -28 20 -44 8 -23 13 -27 23 -17 9
9 6 23 -15 63 -21 39 -25 55 -16 65 8 10 14 11 25 2 11 -9 16 -8 26 5 10 13
18 14 44 7 25 -7 35 -6 47 8 44 48 -18 114 -68 72 -9 -7 -16 -23 -16 -34 0
-16 -3 -18 -12 -9 -18 18 -35 15 -41 -8 -7 -28 -33 -25 -54 7 -73 113 -233
260 -233 215z"/>
<path d="M320 1821 c0 -121 11 -136 53 -72 14 21 37 51 51 66 37 40 24 44 -19
6 -52 -45 -65 -41 -65 18 0 28 -4 53 -10 56 -6 4 -10 -23 -10 -74z"/>
<path d="M2666 1657 c-5 -10 -6 -40 -2 -67 4 -28 5 -50 2 -50 -3 0 -33 7 -68
15 -35 8 -83 16 -108 19 l-45 4 0 -107 c0 -95 2 -107 18 -108 9 -1 17 3 17 8
0 6 4 8 9 5 4 -3 45 0 90 8 44 7 81 10 81 7 0 -14 -31 -171 -43 -224 -10 -39
-11 -57 -4 -54 13 4 53 156 62 239 6 53 9 59 27 55 10 -3 33 -1 51 4 18 5 55
12 82 15 79 9 158 29 163 42 2 7 -2 12 -10 13 -24 1 -53 6 -102 18 -27 6 -64
12 -82 13 -19 1 -34 5 -34 9 0 4 -10 8 -22 8 -13 0 -33 1 -45 1 -20 0 -22 6
-25 73 -2 49 -6 66 -12 54z m-76 -127 c36 -6 81 -15 100 -20 19 -4 68 -14 107
-20 76 -12 100 -26 61 -34 -150 -29 -191 -37 -238 -42 -30 -3 -77 -7 -105 -7
l-50 -2 -3 58 c-3 65 9 89 42 83 11 -3 50 -10 86 -16z"/>
<path d="M960 461 c0 -4 21 -16 47 -26 36 -14 43 -20 29 -25 -17 -5 -16 -9 9
-38 32 -38 53 -43 29 -7 -16 25 -16 25 14 25 49 0 46 17 -5 35 -27 10 -62 24
-80 31 -36 16 -43 17 -43 5z"/>
</g>
</svg>
